<?xml version="1.0" encoding="UTF-8"?>
<!DOCTYPE svg PUBLIC "-//W3C//DTD SVG 1.1//EN" "http://www.w3.org/Graphics/SVG/1.1/DTD/svg11.dtd">
<svg xmlns="http://www.w3.org/2000/svg" xmlns:xlink="http://www.w3.org/1999/xlink" version="1.1" width="330px" height="330px" viewBox="-0.5 -0.5 330 330" style="background-color: rgb(255, 255, 255);"><defs/><g><ellipse cx="164" cy="163.92" rx="120" ry="120" fill="none" stroke="rgb(0, 0, 0)" pointer-events="all"/><path d="M 44 163.92 L 284 163.92" fill="none" stroke="rgb(0, 0, 0)" stroke-miterlimit="10" pointer-events="all"/><path d="M 164 43.92 L 164 283.92" fill="none" stroke="rgb(0, 0, 0)" stroke-miterlimit="10" pointer-events="all"/><ellipse cx="164" cy="163.92" rx="120" ry="120" fill="none" stroke="rgb(0, 0, 0)" transform="rotate(30,164,163.92)" pointer-events="all"/><path d="M 44 163.92 L 284 163.92" fill="none" stroke="rgb(0, 0, 0)" stroke-miterlimit="10" transform="rotate(30,164,163.92)" pointer-events="all"/><path d="M 164 43.92 L 164 283.92" fill="none" stroke="rgb(0, 0, 0)" stroke-miterlimit="10" transform="rotate(30,164,163.92)" pointer-events="all"/><ellipse cx="164" cy="163.92" rx="120" ry="120" fill="none" stroke="rgb(0, 0, 0)" transform="rotate(60,164,163.92)" pointer-events="all"/><path d="M 44 163.92 L 284 163.92" fill="none" stroke="rgb(0, 0, 0)" stroke-miterlimit="10" transform="rotate(60,164,163.92)" pointer-events="all"/><path d="M 164 43.92 L 164 283.92" fill="none" stroke="rgb(0, 0, 0)" stroke-miterlimit="10" transform="rotate(60,164,163.92)" pointer-events="all"/><ellipse cx="164" cy="78.92" rx="15" ry="15" fill="rgb(255, 255, 255)" stroke="rgb(0, 0, 0)" pointer-events="all"/><g fill="rgb(0, 0, 0)" font-family="Helvetica" text-anchor="middle" font-size="14px"><text x="163.5" y="83.42">A</text></g><ellipse cx="121" cy="89.92" rx="15" ry="15" fill="rgb(255, 255, 255)" stroke="rgb(0, 0, 0)" pointer-events="all"/><g fill="rgb(0, 0, 0)" font-family="Helvetica" text-anchor="middle" font-size="14px"><text x="120.5" y="94.42">D</text></g><ellipse cx="89.5" cy="121.42" rx="15" ry="15" fill="rgb(255, 255, 255)" stroke="rgb(0, 0, 0)" pointer-events="all"/><g fill="rgb(0, 0, 0)" font-family="Helvetica" text-anchor="middle" font-size="14px"><text x="89" y="125.92">G</text></g><ellipse cx="79" cy="163.92" rx="15" ry="15" fill="rgb(255, 255, 255)" stroke="rgb(0, 0, 0)" pointer-events="all"/><g fill="rgb(0, 0, 0)" font-family="Helvetica" text-anchor="middle" font-size="14px"><text x="78.5" y="168.42">C</text></g><ellipse cx="90.5" cy="206.92" rx="15" ry="15" fill="rgb(255, 255, 255)" stroke="rgb(0, 0, 0)" pointer-events="all"/><g fill="rgb(0, 0, 0)" font-family="Helvetica" text-anchor="middle" font-size="14px"><text x="90" y="211.42">F</text></g><ellipse cx="123" cy="234.92" rx="15" ry="15" fill="rgb(255, 255, 255)" stroke="rgb(0, 0, 0)" pointer-events="all"/><g fill="rgb(0, 0, 0)" font-family="Helvetica" text-anchor="middle" font-size="14px"><text x="122.5" y="239.42">A#</text></g><ellipse cx="164" cy="248.92" rx="15" ry="15" fill="rgb(255, 255, 255)" stroke="rgb(0, 0, 0)" pointer-events="all"/><g fill="rgb(0, 0, 0)" font-family="Helvetica" text-anchor="middle" font-size="14px"><text x="163.5" y="253.42">D#</text></g><ellipse cx="204" cy="233.92" rx="15" ry="15" fill="rgb(255, 255, 255)" stroke="rgb(0, 0, 0)" pointer-events="all"/><g fill="rgb(0, 0, 0)" font-family="Helvetica" text-anchor="middle" font-size="14px"><text x="203.5" y="238.42">G#</text></g><ellipse cx="238" cy="205.92" rx="15" ry="15" fill="rgb(255, 255, 255)" stroke="rgb(0, 0, 0)" pointer-events="all"/><g fill="rgb(0, 0, 0)" font-family="Helvetica" text-anchor="middle" font-size="14px"><text x="237.5" y="210.42">C#</text></g><ellipse cx="249" cy="163.92" rx="15" ry="15" fill="rgb(255, 255, 255)" stroke="rgb(0, 0, 0)" pointer-events="all"/><g fill="rgb(0, 0, 0)" font-family="Helvetica" text-anchor="middle" font-size="14px"><text x="248.5" y="168.42">F#</text></g><ellipse cx="238" cy="121.42" rx="15" ry="15" fill="rgb(255, 255, 255)" stroke="rgb(0, 0, 0)" pointer-events="all"/><g fill="rgb(0, 0, 0)" font-family="Helvetica" text-anchor="middle" font-size="14px"><text x="237.5" y="125.92">B</text></g><ellipse cx="208" cy="91.42" rx="15" ry="15" fill="rgb(255, 255, 255)" stroke="rgb(0, 0, 0)" pointer-events="all"/><g fill="rgb(0, 0, 0)" font-family="Helvetica" text-anchor="middle" font-size="14px"><text x="207.5" y="95.92">E</text></g><ellipse cx="268" cy="102.92" rx="20" ry="20" fill="rgb(255, 255, 255)" stroke="rgb(0, 0, 0)" pointer-events="all"/><g fill="rgb(0, 0, 0)" font-family="Helvetica" text-anchor="middle" font-size="18px"><text x="267.5" y="109.42">D</text></g><ellipse cx="164" cy="43.92" rx="20" ry="20" fill="rgb(255, 255, 255)" stroke="rgb(0, 0, 0)" pointer-events="all"/><g fill="rgb(0, 0, 0)" font-family="Helvetica" text-anchor="middle" font-size="18px"><text x="163.5" y="50.42">C</text></g><ellipse cx="104" cy="58.92" rx="20" ry="20" fill="rgb(255, 255, 255)" stroke="rgb(0, 0, 0)" pointer-events="all"/><g fill="rgb(0, 0, 0)" font-family="Helvetica" text-anchor="middle" font-size="18px"><text x="103.5" y="65.42">F</text></g><ellipse cx="222" cy="58.92" rx="20" ry="20" fill="rgb(255, 255, 255)" stroke="rgb(0, 0, 0)" pointer-events="all"/><g fill="rgb(0, 0, 0)" font-family="Helvetica" text-anchor="middle" font-size="18px"><text x="221.5" y="65.42">G</text></g><ellipse cx="60" cy="102.92" rx="20" ry="20" fill="rgb(255, 255, 255)" stroke="rgb(0, 0, 0)" pointer-events="all"/><g fill="rgb(0, 0, 0)" font-family="Helvetica" text-anchor="middle" font-size="18px"><text x="59.5" y="109.42">A#</text></g><ellipse cx="44" cy="163.92" rx="20" ry="20" fill="rgb(255, 255, 255)" stroke="rgb(0, 0, 0)" pointer-events="all"/><g fill="rgb(0, 0, 0)" font-family="Helvetica" text-anchor="middle" font-size="18px"><text x="43.5" y="170.42">D#</text></g><ellipse cx="60" cy="223.92" rx="20" ry="20" fill="rgb(255, 255, 255)" stroke="rgb(0, 0, 0)" pointer-events="all"/><g fill="rgb(0, 0, 0)" font-family="Helvetica" text-anchor="middle" font-size="18px"><text x="59.5" y="230.42">G#</text></g><ellipse cx="104" cy="263.92" rx="20" ry="20" fill="rgb(255, 255, 255)" stroke="rgb(0, 0, 0)" pointer-events="all"/><g fill="rgb(0, 0, 0)" font-family="Helvetica" text-anchor="middle" font-size="18px"><text x="103.5" y="270.42">C#</text></g><ellipse cx="222" cy="263.92" rx="20" ry="20" fill="rgb(255, 255, 255)" stroke="rgb(0, 0, 0)" pointer-events="all"/><g fill="rgb(0, 0, 0)" font-family="Helvetica" text-anchor="middle" font-size="18px"><text x="221.5" y="270.42">B</text></g><ellipse cx="268" cy="223.92" rx="20" ry="20" fill="rgb(255, 255, 255)" stroke="rgb(0, 0, 0)" pointer-events="all"/><g fill="rgb(0, 0, 0)" font-family="Helvetica" text-anchor="middle" font-size="18px"><text x="267.5" y="230.42">E</text></g><ellipse cx="284" cy="163.92" rx="20" ry="20" fill="rgb(255, 255, 255)" stroke="rgb(0, 0, 0)" pointer-events="all"/><g fill="rgb(0, 0, 0)" font-family="Helvetica" text-anchor="middle" font-size="18px"><text x="283.5" y="170.42">A</text></g><ellipse cx="164" cy="283.92" rx="20" ry="20" fill="rgb(255, 255, 255)" stroke="rgb(0, 0, 0)" pointer-events="all"/><g fill="rgb(0, 0, 0)" font-family="Helvetica" text-anchor="middle" font-size="18px"><text x="163.5" y="290.42">F#</text></g></g></svg>