<?xml version="1.0" encoding="UTF-8"?>
<!DOCTYPE svg PUBLIC "-//W3C//DTD SVG 1.1//EN" "http://www.w3.org/Graphics/SVG/1.1/DTD/svg11.dtd">
<svg xmlns="http://www.w3.org/2000/svg" xmlns:xlink="http://www.w3.org/1999/xlink" version="1.1" width="343px" height="83px" viewBox="-0.5 -0.5 343 83" style="background-color: rgb(255, 255, 255);"><defs/><g><path d="M 187.48 35.56 Q 200.09 35.55 200.09 48.27 Q 200.09 61 193.12 61" fill="none" stroke="rgb(0, 0, 0)" stroke-miterlimit="10" pointer-events="stroke"/><path d="M 186.12 61 L 193.12 57.5 L 193.12 64.5 Z" fill="rgb(0, 0, 0)" stroke="rgb(0, 0, 0)" stroke-miterlimit="10" pointer-events="all"/><path d="M 190 26 L 261.88 26" fill="none" stroke="rgb(0, 0, 0)" stroke-miterlimit="10" pointer-events="stroke"/><path d="M 268.88 26 L 261.88 29.5 L 261.88 22.5 Z" fill="rgb(0, 0, 0)" stroke="rgb(0, 0, 0)" stroke-miterlimit="10" pointer-events="all"/><ellipse cx="170" cy="26" rx="20" ry="20" fill="rgb(255, 255, 255)" stroke="rgb(0, 0, 0)" pointer-events="all"/><g fill="rgb(0, 0, 0)" font-family="Helvetica" text-anchor="middle" font-size="18px"><text x="169.5" y="32.5">C</text></g><path d="M 78.12 26 L 150 26" fill="none" stroke="rgb(0, 0, 0)" stroke-miterlimit="10" pointer-events="stroke"/><path d="M 71.12 26 L 78.12 22.5 L 78.12 29.5 Z" fill="rgb(0, 0, 0)" stroke="rgb(0, 0, 0)" stroke-miterlimit="10" pointer-events="all"/><path d="M 30 26 L 0 26" fill="none" stroke="rgb(0, 0, 0)" stroke-miterlimit="10" stroke-dasharray="3 3" pointer-events="stroke"/><ellipse cx="50" cy="26" rx="20" ry="20" fill="rgb(255, 255, 255)" stroke="rgb(0, 0, 0)" pointer-events="all"/><g fill="rgb(0, 0, 0)" font-family="Helvetica" text-anchor="middle" font-size="18px"><text x="49.5" y="32.5">F</text></g><path d="M 305 61 L 340.09 61" fill="none" stroke="rgb(0, 0, 0)" stroke-miterlimit="10" stroke-dasharray="3 3" pointer-events="stroke"/><ellipse cx="290" cy="61" rx="14.999999999999998" ry="14.999999999999998" fill="rgb(255, 255, 255)" stroke="rgb(0, 0, 0)" pointer-events="all"/><g fill="rgb(0, 0, 0)" font-family="Helvetica" text-anchor="middle" font-size="14px"><text x="289.5" y="65.5">E</text></g><path d="M 310 26 L 340 26" fill="none" stroke="rgb(0, 0, 0)" stroke-miterlimit="10" stroke-dasharray="3 3" pointer-events="stroke"/><ellipse cx="290" cy="26" rx="20" ry="20" fill="rgb(255, 255, 255)" stroke="rgb(0, 0, 0)" pointer-events="all"/><g fill="rgb(0, 0, 0)" font-family="Helvetica" text-anchor="middle" font-size="18px"><text x="289.5" y="32.5">G</text></g><path d="M 185 61 L 268.88 61" fill="none" stroke="rgb(0, 0, 0)" stroke-miterlimit="10" pointer-events="stroke"/><path d="M 273.88 61 L 268.88 63.5 L 268.88 58.5 Z" fill="rgb(0, 0, 0)" stroke="rgb(0, 0, 0)" stroke-miterlimit="10" pointer-events="all"/><path d="M 155 61 L 71.12 61" fill="none" stroke="rgb(0, 0, 0)" stroke-miterlimit="10" pointer-events="stroke"/><path d="M 66.12 61 L 71.12 58.5 L 71.12 63.5 Z" fill="rgb(0, 0, 0)" stroke="rgb(0, 0, 0)" stroke-miterlimit="10" pointer-events="all"/><ellipse cx="170" cy="61" rx="14.999999999999998" ry="14.999999999999998" fill="rgb(255, 255, 255)" stroke="rgb(0, 0, 0)" pointer-events="all"/><g fill="rgb(0, 0, 0)" font-family="Helvetica" text-anchor="middle" font-size="14px"><text x="169.5" y="65.5">A</text></g><path d="M 35 61 L 0.09 61" fill="none" stroke="rgb(0, 0, 0)" stroke-miterlimit="10" stroke-dasharray="3 3" pointer-events="stroke"/><ellipse cx="50" cy="61" rx="14.999999999999998" ry="14.999999999999998" fill="rgb(255, 255, 255)" stroke="rgb(0, 0, 0)" pointer-events="all"/><g fill="rgb(0, 0, 0)" font-family="Helvetica" text-anchor="middle" font-size="14px"><text x="49.5" y="65.5">D</text></g><rect x="83" y="-0.08" width="60" height="30" fill="none" stroke="none" pointer-events="all"/><g fill="rgb(0, 0, 0)" font-family="Helvetica" text-anchor="middle" font-size="11px"><text x="112.5" y="18.92">Subdominant</text></g><rect x="200" y="-0.08" width="60" height="30" fill="none" stroke="none" pointer-events="all"/><g fill="rgb(0, 0, 0)" font-family="Helvetica" text-anchor="middle" font-size="11px"><text x="229.5" y="18.92">Dominant</text></g><rect x="199" y="26.92" width="60" height="30" fill="none" stroke="none" pointer-events="all"/><g fill="rgb(0, 0, 0)" font-family="Helvetica" text-anchor="middle" font-size="10px"><text x="228.5" y="45.42">Submediant</text></g><rect x="200" y="52.92" width="60" height="30" fill="none" stroke="none" pointer-events="all"/><g fill="rgb(0, 0, 0)" font-family="Helvetica" text-anchor="middle" font-size="9px"><text x="229.5" y="70.92">Dominant</text></g><rect x="83" y="52.92" width="60" height="30" fill="none" stroke="none" pointer-events="all"/><g fill="rgb(0, 0, 0)" font-family="Helvetica" text-anchor="middle" font-size="9px"><text x="112.5" y="70.92">Subdominant</text></g></g></svg>